<?xml version="1.0" encoding="UTF-8" standalone="no"?>
<svg
   viewBox="0 0 1080 1080"
   xml:space="preserve"
   id="svg2"
   version="1.1"
   sodipodi:docname="untitled-1.svg"
   inkscape:version="1.1 (c68e22c387, 2021-05-23)"
   xmlns:inkscape="http://www.inkscape.org/namespaces/inkscape"
   xmlns:sodipodi="http://sodipodi.sourceforge.net/DTD/sodipodi-0.dtd"
   xmlns="http://www.w3.org/2000/svg"
   xmlns:svg="http://www.w3.org/2000/svg"
   xmlns:rdf="http://www.w3.org/1999/02/22-rdf-syntax-ns#"
   xmlns:cc="http://creativecommons.org/ns#"
   xmlns:dc="http://purl.org/dc/elements/1.1/"><sodipodi:namedview
     id="namedview81"
     pagecolor="#d0033d"
     bordercolor="#666666"
     borderopacity="1.0"
     inkscape:pageshadow="2"
     inkscape:pageopacity="0.0"
     inkscape:pagecheckerboard="0"
     showgrid="false"
     fit-margin-top="0"
     fit-margin-left="0"
     fit-margin-right="0"
     fit-margin-bottom="0"
     inkscape:zoom="0.28410989"
     inkscape:cx="1036.5707"
     inkscape:cy="1061.2091"
     inkscape:window-width="1920"
     inkscape:window-height="1017"
     inkscape:window-x="-8"
     inkscape:window-y="-8"
     inkscape:window-maximized="1"
     inkscape:current-layer="svg2" /><metadata
     id="metadata8"><rdf:RDF><cc:Work
         rdf:about=""><dc:format>image/svg+xml</dc:format><dc:type
           rdf:resource="http://purl.org/dc/dcmitype/StillImage" /></cc:Work></rdf:RDF></metadata><defs
     id="defs6"><linearGradient
       id="linearGradient66"
       spreadMethod="pad"
       gradientTransform="matrix(755.295,0,0,-755.295,1334.82,1470.54)"
       gradientUnits="userSpaceOnUse"
       y2="0"
       x2="1"
       y1="0"
       x1="0"><stop
         id="stop62"
         offset="0"
         style="stop-opacity:1;stop-color:#ffffff" /><stop
         id="stop64"
         offset="1"
         style="stop-opacity:1;stop-color:#918f90" /></linearGradient><linearGradient
       id="linearGradient74"
       spreadMethod="pad"
       gradientTransform="matrix(365.552,22.23,22.23,-365.552,1808.06,1929.53)"
       gradientUnits="userSpaceOnUse"
       y2="0"
       x2="1"
       y1="0"
       x1="0"><stop
         id="stop70"
         offset="0"
         style="stop-opacity:1;stop-color:#ffffff" /><stop
         id="stop72"
         offset="1"
         style="stop-opacity:1;stop-color:#918f90" /></linearGradient><linearGradient
       id="linearGradient82"
       spreadMethod="pad"
       gradientTransform="matrix(-378.168,245.773,245.773,378.168,1828.82,2353.87)"
       gradientUnits="userSpaceOnUse"
       y2="0"
       x2="1"
       y1="0"
       x1="0"><stop
         id="stop78"
         offset="0"
         style="stop-opacity:1;stop-color:#ffffff" /><stop
         id="stop80"
         offset="1"
         style="stop-opacity:1;stop-color:#918f90" /></linearGradient><linearGradient
       id="linearGradient94"
       spreadMethod="pad"
       gradientTransform="matrix(913.97,0,0,-913.97,880.796,2167.78)"
       gradientUnits="userSpaceOnUse"
       y2="0"
       x2="1"
       y1="0"
       x1="0"><stop
         id="stop86"
         offset="0"
         style="stop-opacity:1;stop-color:#ffffff" /><stop
         id="stop88"
         offset="0.27422392"
         style="stop-opacity:1;stop-color:#918f90" /><stop
         id="stop90"
         offset="0.686813"
         style="stop-opacity:1;stop-color:#918f90" /><stop
         id="stop92"
         offset="1"
         style="stop-opacity:1;stop-color:#918f90" /></linearGradient><clipPath
       id="clipPath104"
       clipPathUnits="userSpaceOnUse"><path
         id="path102"
         d="m 2170.01,1978.13 c 26.93,-116.4 -2.89,-332.07 -53.63,-441.61 -19.08,-29.63 -86.12,-75.36 -236.07,-75.36 -431.87,0 -1213.747,345.73 -1213.747,625.43 24.437,105.68 127.386,274.29 262.992,372.76 -28.973,-25.89 -36.121,-53.2 -36.121,-74.73 0,-216.53 662.656,-535.55 1060.966,-535.55 95.94,0 215.61,17.96 215.61,129.06 z" /></clipPath><linearGradient
       id="linearGradient112"
       spreadMethod="pad"
       gradientTransform="matrix(1513.57,0,0,-1513.57,666.567,1960.25)"
       gradientUnits="userSpaceOnUse"
       y2="0"
       x2="1"
       y1="0"
       x1="0"><stop
         id="stop106"
         offset="0"
         style="stop-opacity:1;stop-color:#ec008c" /><stop
         id="stop108"
         offset="0.609375"
         style="stop-opacity:1;stop-color:#2e3192" /><stop
         id="stop110"
         offset="1"
         style="stop-opacity:1;stop-color:#00adef" /></linearGradient><clipPath
       id="clipPath122"
       clipPathUnits="userSpaceOnUse"><path
         id="path120"
         d="m 1767.34,2530.19 c 196,-101.03 324.86,-286.22 376.06,-447.66 9.9,-96.55 -75.22,-130.73 -194.72,-130.73 -369.09,0 -971.203,298.43 -971.203,492.57 0.359,21.75 10.957,43.76 32.223,66.76 186.82,119.56 437.46,127.25 538.98,88.13 -48.91,13.7 -100.52,1.67 -100.52,-34.47 0,-52.34 187.46,-171.19 344.66,-171.19 14.53,0 70.82,-0.89 70.82,37.39 0,31.07 -48.28,71.54 -96.3,99.2 z" /></clipPath><linearGradient
       id="linearGradient134"
       spreadMethod="pad"
       gradientTransform="matrix(1166.72,0,0,-1166.72,977.476,2286.08)"
       gradientUnits="userSpaceOnUse"
       y2="0"
       x2="1"
       y1="0"
       x1="0"><stop
         id="stop124"
         offset="0"
         style="stop-opacity:1;stop-color:#00adef" /><stop
         id="stop126"
         offset="0.246094"
         style="stop-opacity:1;stop-color:#00adef" /><stop
         id="stop128"
         offset="0.597656"
         style="stop-opacity:1;stop-color:#00a650" /><stop
         id="stop130"
         offset="0.910156"
         style="stop-opacity:1;stop-color:#fff200" /><stop
         id="stop132"
         offset="1"
         style="stop-opacity:1;stop-color:#fff200" /></linearGradient><clipPath
       id="clipPath144"
       clipPathUnits="userSpaceOnUse"><path
         id="path142"
         d="m 639.633,1991.43 c -18.66,-166.78 304.664,-377 651.647,-505.9 321.45,-119.81 663.66,-170 772.64,-51.06 -211.78,-322.33 -545.19,-416.65 -837.59,-345.99 -363.053,87.39 -662.615,428.53 -586.697,902.95 z" /></clipPath><linearGradient
       id="linearGradient156"
       spreadMethod="pad"
       gradientTransform="matrix(1436.14,0,0,-1436.14,627.778,1528.9)"
       gradientUnits="userSpaceOnUse"
       y2="0"
       x2="1"
       y1="0"
       x1="0"><stop
         id="stop146"
         offset="0"
         style="stop-opacity:1;stop-color:#fff200" /><stop
         id="stop148"
         offset="0.117188"
         style="stop-opacity:1;stop-color:#fff200" /><stop
         id="stop150"
         offset="0.402344"
         style="stop-opacity:1;stop-color:#ed1c24" /><stop
         id="stop152"
         offset="0.867188"
         style="stop-opacity:1;stop-color:#ec008c" /><stop
         id="stop154"
         offset="1"
         style="stop-opacity:1;stop-color:#ec008c" /></linearGradient></defs><g
     transform="matrix(0.6544532,0,0,-0.6544532,-410.85008,1714.9109)"
     id="g12">
      <path id="path68" style="fill:url(#linearGradient66);fill-opacity:1;fill-rule:evenodd;stroke:none"
       d="m 1334.82,1587.03 215.51,-192.8 c 276.06,-69.38 471.78,-47.08 523.7,53.15 12,23.97 17.23,48.11 15.88,72.33 -169.95,-76.48 -421.51,-54.09 -755.09,67.32 v 0" />
      <path id="path76" style="fill:url(#linearGradient74);fill-opacity:1;fill-rule:evenodd;stroke:none"
       d="m 2135.1,2047.32 c -27.33,-75.09 -137.24,-99.15 -329.84,-71.94 l 145.53,-132.48 c 161.27,-3.79 234.92,40.87 220.66,133.67 -1.89,25.18 -13.83,48.92 -36.35,70.75 v 0" />
      <path id="path84" style="fill:url(#linearGradient82);fill-opacity:1;fill-rule:evenodd;stroke:none"
       d="m 1861.59,2404.3 c -142.46,123.64 -266.44,192.35 -371.98,206.53 -26.37,0 -52.18,-15.59 -52.18,-43.66 0,-91.41 228.26,-183.92 342.44,-183.92 26.8,-1.66 63.79,4.6 81.72,21.05"/>
       <path id="path96" style="fill:url(#linearGradient94);fill-opacity:1;fill-rule:evenodd;stroke:none"
       d="m 1794.77,1852.61 -190.09,169.65 c -329.85,108.19 -668.649,343.9 -604.18,459.85 -46.98,6.27 -86.199,-22.86 -117.246,-88.51 -42.606,-151.9 477.816,-480.76 911.516,-540.99 v 0" />
      <g id="g98">
        <g clip-path="url(#clipPath104)" id="g100">
          <path id="path114" style="fill:url(#linearGradient112);fill-opacity:1;fill-rule:nonzero;stroke:none"
           d="m 2170.01,1978.13 c 26.93,-116.4 -2.89,-332.07 -53.63,-441.61 -19.08,-29.63 -86.12,-75.36 -236.07,-75.36 -431.87,0 -1213.747,345.73 -1213.747,625.43 24.437,105.68 127.386,274.29 262.992,372.76 -28.973,-25.89 -36.121,-53.2 -36.121,-74.73 0,-216.53 662.656,-535.55 1060.966,-535.55 95.94,0 215.61,17.96 215.61,129.06" />
        </g>
      </g>
      <g id="g116">
        <g
         clip-path="url(#clipPath122)"
         id="g118"><path
           id="path136"
           style="fill:url(#linearGradient134);fill-opacity:1;fill-rule:nonzero;stroke:none"
           d="m 1767.34,2530.19 c 196,-101.03 324.86,-286.22 376.06,-447.66 9.9,-96.55 -75.22,-130.73 -194.72,-130.73 -369.09,0 -971.203,298.43 -971.203,492.57 0.359,21.75 10.957,43.76 32.223,66.76 186.82,119.56 437.46,127.25 538.98,88.13 -48.91,13.7 -100.52,1.67 -100.52,-34.47 0,-52.34 187.46,-171.19 344.66,-171.19 14.53,0 70.82,-0.89 70.82,37.39 0,31.07 -48.28,71.54 -96.3,99.2" /></g></g>
           <g id="g138">
           <g clip-path="url(#clipPath144)"
         id="g140"><path
           id="path158"
           style="fill:url(#linearGradient156);fill-opacity:1;fill-rule:nonzero;stroke:none"
           d="m 639.633,1991.43 c -18.66,-166.78 304.664,-377 651.647,-505.9 321.45,-119.81 663.66,-170 772.64,-51.06 -211.78,-322.33 -545.19,-416.65 -837.59,-345.99 -363.053,87.39 -662.615,428.53 -586.697,902.95" /></g>
           </g>
           <g></g>
           <path id="path160"
       style="fill:#ffffff;fill-opacity:1;fill-rule:evenodd;stroke:none"
       d="m 1906.52,2424.63 c -4.41,3.05 -8.86,6.76 -9.98,8.33 -1.12,1.59 -0.4,4.52 4.06,1.47 l 19.58,-12.69 c 4.28,-3.04 10.22,-9.25 12.93,-13.83 0,0 0.97,-1.64 2.84,-3.61 -1.87,1.97 -29.43,20.33 -29.43,20.33 z m 11.89,-21.69 c -4.48,2.97 -9.21,9.2 -10.7,13.61 l -1.35,3.66 c 0,0 35.93,-25.41 37.52,-27.68 1.67,-2.23 7.97,-11.77 7.97,-13.82 0,2.05 -33.44,24.23 -33.44,24.23 z m 3.05,-17.28 c -4.35,3.22 -7.53,7.59 -7.43,9.44 0.23,1.87 1.77,2.66 6.05,-0.54 l 26.23,-19.8 c 4.24,-3.14 8.03,-8.05 8.45,-10.85 0.29,-2.85 -2.89,-2.33 -6.87,0.97 z m -5.86,-13.55 c -4,3.65 -6.57,7.5 -5.67,8.81 0.75,1.05 5.81,1.03 9.93,-2.49 l 35.87,-29.36 v -3.9 c -1.75,-3.61 -6.53,-3.51 -10.31,0.14 z m -10.26,-14.04 c -3.7,3.73 -4.38,8.71 -1.17,11.18 l 36.65,-31.35 c 3.92,-3.61 5.91,-8.01 4.38,-9.92 -1.6,-1.83 -7.83,-2.05 -11.62,1.79 z m 23.37,-43 c -4.76,-1.91 -11.32,-0.16 -14.68,3.91 l -25.02,28.68 c -3.38,3.98 -4.92,7.9 -3.15,8.56 1.88,0.76 8.79,-0.08 12.61,-3.94 l 33.6,-34.82 z m -26.08,-8.92 c -5.27,-1.12 -12.21,1.36 -15.33,5.58 l -23.03,29.83 c -3.32,4.21 -4.24,8.11 -2.11,8.57 2.29,0.63 11.46,-0.56 14.72,-4.82 0,0 29.48,-37.77 31.53,-37.77 z m -26.25,-4.9 c -1.83,0 -17.17,-1.23 -17.17,-1.23 0,1.99 -25.05,39.23 -25.05,39.23 -2.92,4.4 -2.92,8.07 0.26,7.93 3.05,-0.06 12.05,-3.55 15.08,-7.99 z m -37.56,-1.47 c 0,0 -15.81,1.95 -21.83,1.95 l -17.8,36.64 c -2.31,4.84 -0.48,8.75 4.16,8.75 4.56,0 10.52,-3.76 13.27,-8.29 0,0 22.2,-37.06 22.2,-39.05 z m -294.84,88.23 c -3.27,-4.26 -9.76,-5.62 -14.56,-3.23 0,0 -14,7.75 -15.97,7.75 l 22.96,24.48 c 3.77,3.82 10.14,5.35 14.16,3.22 4.3,-2.09 10.78,-10.03 7.63,-14.4 z m -47,22.84 c -3.95,-3.66 -11.02,-4.24 -15.62,-1.49 l -5.24,4.4 c -4.62,2.53 -4.87,7.35 -0.63,10.56 l 21.07,14.51 c 4.4,3.13 11.41,3.69 15.83,1.3 4.27,-2.39 8.35,-9.16 4.28,-12.67 z m -40.45,26.19 c -4.52,-2.73 -8.73,-5.44 -9.24,-6.05 -0.5,-0.48 -4.42,1.65 -8.71,4.89 l -5.4,3.55 c -4.4,2.93 -4.12,7.33 0.58,9.72 l 27.94,13.62 c 4.87,2.29 11.85,2.09 15.44,-0.35 3.72,-2.54 6.89,-8.91 2.33,-11.64 z m -38.82,24.52 c -4.88,-2.13 -10.91,-2.21 -13.44,-0.16 -2.6,2.07 -7.85,10.62 -2.81,12.43 l 30.61,11.09 c 5.02,1.81 11.13,1.65 13.64,-0.12 2.57,-1.83 6.45,-9 1.45,-11.09 z m -30.57,26.01 c -5.28,-1.65 -11.2,-1 -13.5,1.4 -2.26,2.52 -3.81,10.87 1.43,12.04 l 34.21,7.87 c 5.12,1.12 10.56,0.84 12.05,-0.82 1.36,-1.61 2.2,-9.06 -2.82,-10.69 z m 12.7,42.08 c 5.2,0.74 10.96,-0.16 12.39,-2.01 1.62,-1.85 1.62,-7.9 -3.72,-8.8 l -36.49,-5.74 c -5.3,-0.99 -10.63,-0.41 -11.95,1.28 -1.37,1.55 -2.07,9.42 3.23,10.22 z m 4.33,11.49 -49.08,-5.04 c -5.37,-0.49 -10.61,0.98 -11.83,3.41 -1.21,2.55 2.33,6.95 7.49,7.51 0,0 31.85,2.95 49.67,2.95 0,0 2.57,-6.25 3.75,-8.83 z m -11.51,43 c 5.21,-0.18 8.8,-1.53 7.76,-3.07 -1.05,-1.51 -6.35,-4.69 -11.59,-4.59 l -37.96,1.33 c -5.28,-0.12 -8.66,2.07 -7.49,4.8 z m 9.84,12.69 c 5.29,-0.56 8.86,-1.65 7.84,-2.39 -0.77,-0.8 -8.4,-4.56 -13.9,-4.24 l -35.79,2.49 c -5.28,0.44 -7.85,2.55 -5.69,4.77 2.16,2.14 8.34,3.63 13.61,3.34 z m 18.55,5.58 c -1.65,-0.86 -7.27,-1.18 -12.62,-0.72 l -40.97,4.26 c 2.17,1.32 3.19,1.63 3.19,1.63 4.96,1.68 13.52,2.62 18.98,2.14 l 28.08,-2.73 c 5.26,-0.6 4.98,-3.65 3.34,-4.58 z m 19.7,10.89 c 4.96,-1.19 6,-2.47 2.29,-3.1 -3.68,-0.54 -13.08,-0.34 -18.24,0.63 l -15.52,2.73 c -5.29,0.68 -5.29,1.69 0.1,2.23 l 3.29,0.26 9.28,0.94 c 1.14,0.14 14,-2.75 18.8,-3.69 z m -101.67,-48.81 c -0.08,2.41 4.18,4.6 9.5,4.76 l 40.01,0.45 c 5.42,0.03 9.76,-1.57 9.76,-3.58 0,-1.93 -4.34,-5.71 -9.76,-5.91 l -39.83,-1.68 c -5.18,-0.38 -9.68,3.37 -9.68,5.96 z m 280.07,-206.18 c -1.56,-5.12 0.49,-10.59 4.93,-12.23 4.28,-1.61 18.7,-2.51 19.7,2.55 l 3.65,20.62 c 1.29,5.21 -1.08,10.77 -5.28,12.39 -4.17,1.69 -14.84,0.89 -16.61,-4.17 z m 66.99,-31.96 c 4.82,-1.72 8.73,1.41 8.51,6.73 l -0.34,23.84 c -0.08,5.3 -3.61,10.65 -7.61,11.79 -4.12,1.13 -15.45,-0.3 -15.89,-5.68 l -2.63,-22.02 c -0.3,-5.32 13.12,-13.03 17.96,-14.66 z m 49.87,-12.75 c 4.96,-1 8.29,2.27 7.3,7.61 l -6.02,24.67 c -1.25,5.12 -5.3,10.26 -9.26,11.16 -3.85,1.09 -12.57,-0.48 -11.85,-5.78 l 3.04,-24.34 c 0.78,-5.35 11.78,-12.16 16.79,-13.32 z m 48.98,-8.16 c 5.4,-1 7.98,2.3 5.99,7.16 l -11.11,27.57 c -2.11,4.74 -6.79,9.5 -10.44,10.24 -3.72,0.71 -12.55,-1.62 -10.81,-6.6 l 9.02,-26.82 c 1.65,-4.94 6.71,-9.65 11.08,-10.28 4.34,-0.56 6.27,-1.27 6.27,-1.27 z m -190.64,62.39 c -2.07,-4.88 -7.53,-7.11 -12.07,-5 -4.52,1.99 -15.87,9.4 -13.09,14.01 l 10.8,19.02 c 2.55,4.63 7.83,7.32 11.83,5.93 4.08,-1.3 13,-9.7 10.91,-14.6 z m 520.22,-589.47 c -4.77,-2.2 -8.73,0.33 -8.73,5.66 l -1.59,41.91 c -0.2,5.25 3.36,10.75 7.96,12.11 4.59,1.47 15.5,1.07 15.66,-4.19 l 1.69,-37.96 c 0,-5.38 -4.1,-11.51 -8.84,-13.78 z m -196.16,34.02 c 5.28,-0.35 9.4,-4.94 9.04,-10.27 l -2.41,-39.9 c -0.58,-5.25 -5.26,-9.39 -10.46,-9.16 0,0 -27.98,1.52 -35.99,1.52 l 5.24,49.69 c 0.56,5.26 5.18,9.4 10.58,9 z m -83.05,7.41 c 0,-11.83 -4.78,-49.61 -4.78,-49.61 -0.56,-5.42 -5.5,-9.24 -10.88,-8.6 l -31.96,3.66 c -5.38,0.72 -9.1,5.5 -8.39,10.75 l 7.13,40.14 c 0.8,5.34 5.82,9 11.13,8.28 z m -325.2,76.24 c 5.04,-1.79 7.75,-7.33 5.96,-12.26 l -13.13,-37.13 c -1.79,-4.9 -7.49,-7.73 -12.6,-6.25 l -38.71,12.07 c -5.19,1.59 -7.76,6.93 -5.97,11.91 l 15.08,39.19 c 1.85,4.9 7.45,7.53 12.47,5.54 z m -110.19,40.15 c 4.83,-2.07 7.18,-7.84 5.37,-12.82 l -14.88,-37.29 c -1.87,-4.94 -7.38,-7.36 -12.42,-5.25 l -37.35,15.85 c -4.89,2.31 -7.07,8.13 -4.72,12.91 l 17.17,37.04 c 2.23,4.82 8.09,7.09 13.03,5.18 z m -104.81,47.33 c 5.02,-2 7.07,-7.73 4.77,-12.44 l -19.43,-37.75 c -2.15,-4.82 -7.84,-6.89 -12.6,-4.54 l -35.87,17.04 c -4.88,2.39 -6.73,8.17 -4.28,12.87 l 19.24,37.17 c 2.45,4.85 8.36,6.76 13.18,4.58 z m -118.42,2.7 c -2.73,-4.54 -8.68,-6.37 -13.36,-3.82 l -30.49,18.16 c -4.69,2.71 -6.16,8.61 -3.33,13.15 l 21.27,34.89 c 2.79,4.46 9.04,5.98 13.56,3.27 l 28.62,-17.85 c 4.68,-2.67 6.32,-8.68 3.65,-13.3 z m -94.3,54.89 c -2.95,-4.46 -8.99,-5.49 -13.28,-2.43 l -25.54,18.57 c -4.4,3.06 -5.42,8.96 -2.55,13.38 l 22.74,33.42 c 2.93,4.38 8.99,5.61 13.43,2.63 l 25.13,-16.97 c 4.65,-2.95 5.96,-9 2.93,-13.46 z m -90.624,118.74 c 3.489,4.15 9.664,4.75 13.784,1.32 l 18.56,-15.18 c 4.2,-3.5 4.9,-9.84 1.79,-14.1 l -24.15,-33.58 c -3.073,-4.34 -9.007,-5.14 -13.128,-1.75 l -28.164,23.42 c 0,1.99 31.308,39.87 31.308,39.87 z m -58.593,-2.78 c -3.504,-4.07 -9.301,-4.34 -13.106,-0.6 l -13.941,13.9 c -3.805,3.79 -3.906,10.16 -0.438,14.26 l 26.61,30.79 c 3.445,4.06 9.5,4.15 13.34,0.4 l 20.757,-20.87 c -1.894,0 -33.222,-37.88 -33.222,-37.88 z m -50.989,57 c -3.64,-3.95 -9.199,-3.67 -12.289,0.72 l -8.261,12.11 c -3.067,4.14 -2.805,10.91 0.855,14.73 l 28.063,29.4 c 3.668,3.78 9.203,3.35 12.211,-1.12 l 8.605,-11.79 c 3.16,-4.38 2.684,-10.91 -0.98,-14.81 z m -42.101,44.21 c 0,1.96 -6.133,16.65 -6.133,16.65 -2.129,4.86 -0.777,12.11 2.871,16.01 l 26.25,27.41 c 3.66,3.82 8.738,3.15 11.348,-1.51 0,0 7.133,-13.15 7.133,-15.18 z m 20.613,107.79 c 3.887,3.76 6.574,3.19 6.094,-1.24 -0.613,-4.3 -2.207,-18.75 -6.094,-22.52 l -29.633,-27.87 c -3.687,-3.74 -6.715,-2.46 -6.715,2.91 v 4.23 c 0,5.35 3.028,12.88 6.715,16.58 z m -19.457,-2.31 c -3.863,-3.71 -7.406,-6.83 -7.848,-6.97 -0.437,-0.22 1.2,3.06 3.766,7.75 0,0 3.621,7.29 6.133,11.81 2.652,4.58 8.027,11.07 12.012,14.7 l 20.847,17 c 3.906,3.47 5.5,3.53 3.43,0.36 -2.211,-3.31 -9.242,-16.81 -13.188,-20.39 z M 1604.9,1804.93 c 5.14,-1.63 10.3,1.24 11.43,6.54 l 10.98,38.44 c 1.42,5.17 -1.61,10.47 -6.73,11.78 l -36.65,10.76 c -5.04,1.52 -10.49,-1.59 -11.99,-6.61 l -11.05,-37.21 c -1.33,-5.17 1.79,-10.83 6.79,-12.42 z m 110.4,-26.53 c 5.18,-1.15 10.28,2.24 11.19,7.46 l 8.33,40.22 c 0.87,5.19 -2.49,10.2 -7.85,11.24 l -34.13,6.45 c -5.16,1 -10.56,-2.55 -11.94,-7.72 l -9.2,-38.4 c -1.27,-5.26 2.07,-10.36 7.27,-11.39 z m 282.1,-24.47 c 5.31,0.31 9.88,4.94 10.19,10.35 l 1.16,39.9 c 0.16,5.25 -4.04,9.28 -9.38,8.92 l -20.08,-0.48 c -5.41,-0.48 -9.77,-5.18 -10.06,-10.51 l -1.11,-39.9 c -0.28,-5.25 3.9,-9.64 9.2,-9.64 z m 69.39,10.75 c 5.11,0.96 9.44,6.06 9.44,11.48 v 39.77 c 0,5.41 -4.33,8.96 -9.44,7.97 l -12.57,-2.27 c -5.32,-1.04 -9.6,-6.14 -9.6,-11.56 v -39.81 c 0,-5.34 4.28,-9 9.6,-8.05 z m 90.33,104.43 c 2.26,3.26 4.33,1.67 4.76,-3.67 l 2.71,-36.01 c 0.3,-5.25 -1.33,-12.78 -3.42,-16.57 -2.27,-3.74 -11.93,-8.52 -11.93,-3.26 l -1.53,37.95 c -0.26,5.39 7.27,18.37 9.41,21.56 z m 21,-20.2 c 0.32,11.83 -0.98,55.25 -0.98,55.25 -0.1,5.73 -0.66,9.24 -1.15,5.49 -0.6,-3.9 -2.75,-19.2 -2.43,-24.61 l 1.39,-32.1 0.96,-10.52 c 0,-0.56 1.39,3.38 2.21,6.49 z M 1022.73,1211.32 c -4.76,2.07 -9.6,8.37 -10.78,13.47 l -3.32,24.38 c -0.34,5.26 3.2,7.56 7.88,5.02 l 22.45,-10.52 c 4.66,-2.47 8.33,-8.84 8.12,-14.26 l 1.06,-19.83 c 0.12,-5.27 -3.74,-7.89 -8.62,-5.66 z m 561.76,-108.5 c 9.86,0 23.96,1.12 23.96,1.12 5.38,0.39 5.64,-0.64 0.6,-2.56 l -51.13,-17.04 c -5.1,-1.83 -15.91,-4.38 -21.19,-4.62 l -5.66,-0.09 c -5.31,-0.23 -5.65,1.04 -0.65,2.88 z m -82.57,-20.95 c -5.02,-1.84 -13.51,-3.1 -18.86,-2.71 l -19.2,1.04 c -5.36,0.47 -5.56,2.31 -0.54,4.14 l 45.41,16.17 c 4.72,2.31 12.98,4.07 18.42,3.82 l 14.12,-0.96 c 5.34,-0.15 5.78,-2.46 1.06,-5.09 z m -103.87,6.06 c -5.24,0.71 -5.5,3.18 -0.61,5.33 l 32.34,16.97 c 4.64,2.39 9.02,4.31 9.58,4.31 0.58,0 5.3,-0.57 10.67,-1.44 l 19.74,-3.1 c 5.26,-0.81 5.52,-3.28 0.66,-5.27 l -47.82,-19.68 c -3.94,0 -24.56,2.88 -24.56,2.88 z m -10.69,36.32 c 5.3,-0.95 5.89,-3.98 1.47,-7.01 l -28.64,-16.09 c -4.74,-2.32 -12.89,-3.43 -18.14,-2.23 l -16.62,3.59 c -5.17,1.27 -5.87,4.61 -1.21,7.49 l 20.32,14.57 c 4.06,3.35 11.81,5.34 17.03,4.46 z m -128.68,22.71 c 3.42,4.3 10.26,6.53 15.41,5.1 l 26.57,-7.26 c 5.18,-1.51 6.22,-5.58 2.25,-9.24 l -17.15,-14.58 c -3.98,-3.42 -11.53,-5.33 -16.75,-4.06 l -19.89,6.22 c -5.14,1.59 -6.45,5.97 -2.85,9.95 z m -45.57,25.57 c 5.08,-1.52 6.89,-6.54 3.86,-10.91 l -11.75,-16.82 c -3.13,-4.37 -9.83,-6.37 -14.8,-4.62 l -19.27,6.78 c -5.04,1.82 -7.25,7.17 -4.98,11.94 l 8.38,17.45 c 2.29,4.94 8.18,7.25 13.18,5.34 z m -87.71,32.74 c 4.92,-1.99 7.58,-7.88 5.99,-12.99 l -5.06,-16.64 c -1.43,-5.11 -6.81,-7.66 -11.73,-5.66 l -19.52,7.41 c -4.96,2.07 -8.56,8.12 -8.34,13.38 l 2.37,20.08 c 0.82,5.01 5.62,7.81 10.49,5.74 z m -166.744,79.59 c 4.641,-2.55 9.442,-8.77 10.676,-13.95 l 5.957,-26.69 c 1.629,-4.93 -0.84,-7.01 -5.461,-4.54 l -16.152,9.09 c -4.637,2.63 -9.953,8.84 -11.891,13.94 l -9.914,30.99 c -1.496,5.18 1.055,7.09 5.672,4.46 z m -64.09,0.16 c -4.503,2.94 -10.078,9.32 -12.449,14.1 l -17.683,37.44 c -2.094,4.86 0,6.53 4.437,3.75 l 17.266,-11.55 c 4.386,-3.11 9.289,-9.64 10.859,-14.74 l 14.219,-34.5 c 2.129,-4.94 0.461,-6.21 -3.844,-3.03 z m -41.503,33.54 c 2.644,-4.71 1.648,-5.34 -2.415,-1.76 l -14.496,11.48 c -4.3,3.02 -9.722,9.56 -11.754,14.5 l -15.968,35.6 c -2.117,4.78 -0.164,6.46 4.183,3.43 l 9.832,-6.53 c 4.266,-3.27 9.684,-9.72 11.993,-14.58 z m -44.473,35.05 c -1.934,0 -13.352,12.59 -13.352,12.59 -3.543,3.9 -8.718,10.99 -11.211,15.61 l -24.14,44.38 c -2.528,4.54 -1.805,5.17 1.695,1.11 l 8.523,-7.65 c 3.688,-3.75 8.668,-10.76 10.778,-15.53 0,0 11.652,-25.18 27.707,-50.51 z m 940.03,-72.18 c 5.32,-0.48 12.03,2.87 14.9,7.34 l 23.88,36.88 c 3.06,4.45 1.17,8.36 -4.27,8.52 l -30.22,0.87 c -5.39,0.33 -12.02,-3.18 -14.75,-7.8 l -23.59,-35.77 c -3.01,-4.38 -0.96,-8.45 4.32,-8.93 z m -98.68,8.05 c 5.27,-0.56 12.02,2.7 14.87,7.17 l 22.87,36.57 c 2.56,4.62 0.42,8.84 -4.84,9.56 l -35.41,5.25 c -5.28,0.88 -11.63,-2.15 -14.16,-6.93 l -22.25,-38.4 c -2.57,-4.54 -0.46,-8.76 4.92,-9.39 z m -337.27,81.26 c 5.1,-1.92 10.84,0.71 12.87,5.73 l 17.54,36.96 c 2.12,4.87 -0.32,10.29 -5.32,12.03 l -42.37,15.39 c -4.91,1.99 -10.46,-0.41 -12.44,-5.5 l -14.85,-39.12 c -1.91,-4.86 0.69,-10.28 5.85,-11.79 z m -646.404,399.12 c -3.028,4.46 -5.203,12.25 -4.641,17.51 l 5.598,44.45 c 0.574,5.34 3.757,6.13 6.949,1.92 l 7.668,-10.76 c 3.527,-3.95 5.894,-11.51 5.332,-16.89 l -4.399,-47.7 c -0.277,-5.42 -3.246,-6.29 -6.589,-2.15 z m -27.246,45.15 c -2.332,4.78 -3.965,13.11 -3.305,18.4 l 4.043,43.82 c 0.515,5.34 3.047,5.86 5.555,1.32 2.531,-4.58 6.074,-14.66 5.539,-20.12 l -5.34,-46.76 c -0.457,-5.3 -2.668,-6.22 -4.903,-1.76 -2.07,4.3 -1.589,5.1 -1.589,5.1 z m 104.359,-62.44 c 0,-3.82 -6.57,-53.53 -6.57,-53.53 -0.758,-5.26 -4.543,-6.77 -8.485,-3.03 l -15.594,16.25 c -3.765,3.66 -6.292,11.08 -5.656,16.42 l 5.035,44.93 c 0.661,5.16 4.301,6.39 7.989,2.63 z m 64.254,-52.9 c 4.258,-3.18 7.07,-10.19 6.211,-15.37 l -7.887,-44.53 c -0.758,-5.42 -4.664,-6.78 -8.824,-3.43 l -22.043,18.48 c -4.168,3.51 -6.992,10.68 -6.438,15.94 l 6.696,42.61 c 0.812,5.42 5,6.86 9.218,3.68 z m 87.43,-62.45 c 4.562,-2.87 7.308,-9.32 6.132,-14.58 l -9.754,-42.22 c -1.082,-5.18 -5.578,-7.17 -10.136,-4.22 l -27.188,18.47 c -4.406,2.95 -7.23,9.81 -6.437,14.98 l 7.949,43.1 c 0.976,5.19 5.34,6.93 9.68,3.91 z m 98.507,-59.68 c 4.7,-2.62 7.35,-8.83 5.977,-14.01 l -10.817,-40.56 c -1.332,-5.17 -6.273,-7.24 -10.992,-4.69 l -32.484,18.16 c -4.563,2.71 -7.367,8.93 -6.176,14.34 l 11.57,49.79 z m 102.11,-107.93 c -1.55,-5.19 -6.79,-7.5 -11.69,-5.35 l -35.85,17.21 c -4.76,2.39 -7.49,8.68 -6.21,13.87 l 10.79,38.63 c 1.42,5.02 6.64,7.33 11.45,5.02 l 37.58,-17.36 c 4.94,-2.24 7.63,-8.29 6.2,-13.47 z m 122.51,0.23 c 5.02,-2.07 7.33,-7.73 5.5,-12.74 l -14.84,-37.05 c -1.88,-5.1 -7.53,-7.56 -12.53,-5.74 l -39.42,16.25 c -4.76,2.24 -7.23,8.05 -5.37,13.07 l 13.14,37.21 c 1.76,4.94 7.27,7.56 12.21,5.42 z M 1390.46,1347 c -5.05,1.43 -7.38,6.61 -5.05,11.38 l 17.58,36.81 c 2.21,4.71 8.3,7.57 13.45,6.06 l 40.32,-11.39 c 5.09,-1.36 7.51,-5.34 5.32,-8.53 l -17.42,-36.88 c -2.36,-4.62 -4.3,-9.08 -4.3,-9.72 0,-0.4 -6.16,-1.6 -11.22,-0.09 z m 114.62,-31.15 c -5.08,1.27 -7.4,6.05 -4.74,10.84 l 20.4,38.15 c 2.57,4.71 8.78,7.57 14.04,6.38 l 38.18,-9.64 c 5.36,-1.04 7.43,-5.9 4.9,-10.44 l -20.2,-36.56 c -2.47,-4.55 -9,-7.34 -14.3,-6.3 z m 343.82,-25.49 c -3.13,-4.23 -10.08,-8.05 -15.36,-8.29 l -21.98,-1.04 c -5.48,-0.23 -7.31,3.11 -4.12,7.41 l 24.33,35.45 c 3.05,4.39 9.9,8.45 15.18,9.08 l 24.1,2.24 c 5.33,0.31 7.3,-3.03 4.24,-7.41 z m 70.63,12.58 c -3.07,-4.22 -9.83,-8.6 -15.16,-9.63 l -14.1,-3.12 c -5.14,-0.96 -6.92,1.84 -3.79,6.22 l 28.1,37.6 c 3.09,4.14 9.88,8.85 15.1,10.04 l 14.74,3.27 c 5.12,1.19 6.97,-1.2 3.76,-5.59 z m 57.93,46.93 c 3.38,4.22 9.5,9.08 13.84,10.67 4.31,1.59 11.12,1.59 7.83,-2.63 l -27.21,-36.89 c -3.36,-4.14 -10.13,-9.24 -15.05,-11.39 l -12.99,-5.34 c 0,1.92 33.58,45.58 33.58,45.58 z M 707.289,2168.61 c 2.473,4.82 4.024,4.34 3.469,-0.92 l -0.996,-10.43 c 0,-5.26 -1.852,-13.63 -4.043,-18.41 l -21.692,-46.52 c 0,11.79 1.161,23.98 1.161,23.98 0.515,5.18 2.843,13.38 5.171,18.32 z m -1.293,-114.84 c -2.191,-4.9 -6.172,-5.06 -8.844,-0.4 l -2.664,6.62 c -2.453,4.78 -2.453,12.58 -0.246,17.44 l 17.352,37.64 c 2.25,4.9 5.972,4.9 8.445,0.28 l 3.582,-7.81 c 2.551,-4.65 2.609,-12.42 0.418,-17.24 z m 34.418,9.48 c 2.406,4.7 6.891,5.14 10.098,0.8 l 8.605,-13.39 c 3.301,-4.22 4.004,-11.63 1.707,-16.41 l -17.683,-37.64 c -2.051,-4.9 -6.133,-5.3 -9.082,-0.75 l -10.196,14.21 c -2.89,4.51 -3.429,12.19 -1.273,17.01 z m 75.121,-74.68 c 3.766,-3.67 4.899,-10.8 2.653,-15.58 l -17.684,-37.76 c -2.074,-4.82 -7.113,-5.9 -11.016,-2.31 l -17.41,18.68 c -3.426,4.06 -4.34,11.47 -1.973,16.21 l 16.415,34.66 c 2.41,4.89 7.25,5.73 11.035,2.07 z m 58.535,-113.33 c -1.968,-4.86 -7.449,-6.22 -11.73,-3.11 l -23.977,19.44 c -4.066,3.46 -5.398,10.36 -3.07,15.14 l 16.191,34.89 c 2.371,4.54 7.829,5.73 11.973,2.39 l 23.18,-17.29 c 4.183,-3.11 6.015,-9.68 3.722,-14.58 z m 100.039,-12.63 c 4.563,-2.82 6.395,-9.28 4.082,-14.3 l -15.613,-35.45 c -2.148,-4.9 -7.562,-6.33 -11.832,-3.26 l -29.433,19.75 c -4.262,3.03 -6.153,9.68 -3.84,14.58 l 15.808,34.62 c 2.211,4.74 7.614,6.25 11.973,3.38 z m 100.461,-57.79 c 4.6,-2.71 6.83,-8.85 4.84,-13.79 l -14.58,-37.26 c -1.93,-4.94 -7.47,-6.93 -12.07,-4.3 l -36.41,19.99 c -4.58,2.71 -6.73,8.9 -4.52,13.77 l 15.9,35.45 c 2.21,4.89 7.78,7.01 12.54,4.46 z m 60.17,-43.4 c 1.89,4.93 7.45,7 12.34,4.7 l 39.94,-18.89 c 4.76,-2.55 6.89,-8.51 4.76,-13.38 l -16.09,-37.59 c -2.08,-4.87 -7.81,-6.86 -12.59,-4.63 l -38.2,18.64 c -4.78,2.16 -7.19,8.12 -5.34,12.91 z m 168.29,-66.21 c 4.9,-2.07 7.37,-7.96 5.62,-12.98 0,0 -16.37,-42.15 -16.37,-46.21 l -52.08,20.16 c -4.99,1.99 -7.45,7.64 -5.44,12.51 l 15.87,38.72 c 1.91,4.93 7.69,7.4 12.59,5.33 z m 58.89,-86.43 c -5.11,1.83 -7.9,7.41 -6.17,12.5 l 14.26,39.13 c 1.91,5.25 7.41,7.72 12.31,5.88 l 43.08,-17.05 c 4.94,-1.9 7.54,-7.24 5.69,-12.34 l -14.43,-38 c -1.68,-5.02 -7.28,-7.64 -12.28,-5.97 z m 121.83,-39.67 c -5.1,1.67 -7.72,6.92 -5.85,11.94 l 14.46,38.09 c 1.93,4.94 7.59,7.8 12.7,6.21 l 42.63,-12.27 c 5.05,-1.43 7.62,-6.69 5.69,-11.71 l -14.82,-39.12 c -1.83,-4.94 -7.52,-7.72 -12.69,-6.21 z m 345.49,-67.81 c -5.29,0.25 -8.2,4.55 -6.45,9.49 l 12.49,38.8 c 1.53,5.17 7.22,9 12.52,8.44 l 29.22,-1.99 c 5.24,-0.56 8.51,-5.1 7.07,-10.28 l -11.41,-37.12 c -1.63,-4.94 -7.27,-8.93 -12.65,-8.85 z m 96.76,-3.1 c -5.36,-0.24 -8.47,3.83 -6.93,9 l 12.44,38.56 c 1.32,5.18 6.89,9.65 12.27,9.88 l 24,2.47 c 5.34,0.48 8.39,-3.35 6.81,-8.28 l -13.88,-40.87 c -1.65,-5.1 -7.35,-9.33 -12.77,-9.56 z m 172.89,88.83 c 4.92,1.91 7.61,-0.56 6.11,-5.58 l -11.97,-38.72 c -1.59,-5.18 -7,-11.06 -11.9,-13.14 -4.74,-1.99 -15.4,-2.07 -13.89,3.02 l 12.35,38.88 c 1.42,5.11 6.83,10.52 11.87,12.11 z m 17.73,-32.98 c -3.67,-3.66 -5.5,-2.71 -3.93,2.39 l 12.13,38.79 c 1.49,5.19 5.68,12.59 9.16,16.49 l 6.18,6.22 c 3.46,4.06 4.26,3.9 2.75,-1.43 l -11.99,-36.73 c -1.94,-5.34 -4.76,-15.38 -8.25,-19.35 z m -450.93,30.35 c 5.28,-1.19 8.08,-6.29 6.43,-11.31 l -13.86,-38.96 c -1.75,-4.94 -7.31,-8.21 -12.55,-7.01 l -39.73,8.05 c -5.3,1.35 -8.1,6.37 -6.43,11.47 l 13.68,40.71 c 1.61,5.1 7.19,8.2 12.33,7.09 z m 91.49,-76.01 c 5.44,-0.46 11.04,3.2 12.65,8.22 l 13.3,39.11 c 1.6,5.1 -1.59,9.72 -6.81,10.28 l -36.06,5.26 c -5.22,0.87 -11.11,-2.48 -12.87,-7.42 l -12.82,-38.95 c -1.72,-5.1 1.35,-10.04 6.48,-10.91 z m 266.21,3.35 c 5.26,0.64 10.97,5.74 12.52,10.68 l 12.15,41.11 c 1.38,5.18 -1.71,8.2 -6.93,6.77 l -14.78,-4.94 c -5.19,-1.27 -10.69,-6.61 -12.11,-11.63 l -12.22,-36.72 c -1.52,-5.02 1.51,-8.62 6.79,-7.66 z m 15.65,493.79 c 5.42,1 8.39,5.98 6.74,11.23 l -14.25,44.5 c -1.45,5.18 -6.17,8.48 -10.57,7.33 -4.36,-1.12 -14.9,-8.21 -13.68,-13.27 l 11.29,-44.45 c 1.27,-5.22 6.37,-8.48 11.27,-7.37 z m -292.23,11.79 c 5.27,-1.03 9.86,2.35 10.37,7.57 l 2.53,43.94 c 0.29,5.21 -3.7,10.51 -8.88,11.39 l -23.3,4.14 c -5.22,1.12 -9.98,-2.31 -10.42,-7.48 l -3.33,-36.18 -0.93,-11.54 c 0,-1.08 4.38,-4.95 9.5,-5.94 z m -89.93,22.27 c 5.08,-1.64 9.75,1.44 10.34,6.65 l 6.75,42.54 c 0.76,5.18 -2.72,10.64 -8,11.91 l -24.7,6.74 c -5.03,1.47 -10.22,-1.56 -11.39,-6.86 l -8.64,-40.58 c -1.18,-5.22 2.12,-10.84 7.29,-12.44 z m 451.79,76.04 c -1.79,4.98 -2.95,11.51 -2.17,14.58 0.76,3.15 5.1,5.54 7.41,0.67 l 15.65,-35.68 c 2.11,-4.86 3.15,-13.11 1.95,-18.32 -1.01,-5.9 -3.72,-6.26 -5.73,-1.24 z m 5.9,-72.29 c -2.77,-2.99 -6.8,-1.52 -8.99,3.38 0,0 -20.55,47.04 -20.55,48.99 0,2.03 4.74,7.18 4.74,7.18 3.72,3.94 8.44,3.26 10.6,-1.72 l 17.64,-39.43 c 2.03,-4.9 -0.6,-15.3 -3.44,-18.4 z m -24.96,-10.52 c 1.85,-4.98 -0.66,-10.68 -5.54,-12.71 0,0 -1.03,-0.04 -4.78,-1.83 -3.86,-1.56 -8.54,1.12 -10.15,6.25 l -14.56,42.46 c -1.69,5.02 -0.1,10.52 3.36,12.35 3.57,1.68 13.91,0.96 15.81,-4.06 z m -123.74,27.24 c 5.34,0.36 10.76,-3.62 12.07,-8.84 l 11.21,-44.21 c 1.16,-5.26 -2.19,-9.84 -7.57,-10.28 l -13.3,-1.04 c -5.32,0.17 -10.66,4.23 -11.71,9.56 0,0 -10.1,47.8 -10.1,53.86 z m -63.24,-0.55 c 5.36,-0.4 10.36,-5.06 11.3,-10.36 0,0 8.32,-51.54 8.32,-53.62 l -27.84,1.52 c -5.4,0.32 -10.22,4.86 -10.89,10.11 l -4.93,43.94 c -0.61,5.3 3.25,9.32 8.63,8.96 z m -71.39,6.13 c 5.25,-0.8 9.71,-5.89 9.83,-11.19 l 2.09,-52.86 c -3.86,0 -31.94,4.38 -31.94,4.38 -5.42,0.72 -9.64,5.9 -9.64,11.12 v 43.61 c 0,5.34 4.22,9.04 9.64,8.25 z m -288.75,64.73 c 1.81,5.06 7.34,7.37 12.25,5.14 l 24.63,-8.57 c 5,-1.67 7.99,-7.29 6.69,-12.47 L 1575.25,2076 c -1.48,-5.1 -6.73,-7.97 -11.81,-6.46 l -28.94,9.8 c -5.08,1.68 -7.71,7.25 -5.94,12.27 z m -59.83,-21.71 c -2.2,-4.7 -8.09,-7.09 -13.03,-5.02 l -28.1,12.67 c -4.98,1.99 -7.13,7.61 -4.82,12.43 l 18.05,35.72 c 2.29,4.91 8.18,7.14 13.18,5.18 l 25.81,-10.79 c 4.98,-2.07 7.21,-7.89 5.12,-12.75 z m -89.63,39.11 c -2.45,-4.69 -8.38,-6.69 -13.24,-4.54 l -27.34,14.1 c -4.91,2.31 -6.6,7.89 -3.69,12.31 l 23.16,35.06 c 2.87,4.42 9.2,6.09 13.89,3.62 0,0 29.05,-15.34 30.85,-15.34 z m -97.89,98.83 c 3.45,4.03 10.02,5.06 14.54,2.27 l 19.56,-11.71 c 4.62,-2.55 5.99,-8.05 2.79,-12.43 l -24.48,-33.45 c -2.95,-4.47 -9.18,-5.98 -13.94,-3.35 l -32.72,18.32 c 7.46,9.16 34.25,40.35 34.25,40.35 z m -65.08,-9.2 c -3.79,-3.75 -10.44,-4.38 -14.86,-1.35 l -19.6,12.74 c -4.3,3.03 -4.86,8.65 -1.17,12.43 l 31.64,29.84 c 3.97,3.62 10.6,4.22 15,1.15 l 25.27,-17.29 c -4.75,-5.97 -36.28,-37.52 -36.28,-37.52 z m -66.68,47.04 c -3.99,-3.54 -10.86,-3.86 -15.06,-0.51 l -15.43,10.75 c -4.21,3.43 -4.21,9 -0.15,12.43 l 34.5,28.97 c 4.14,3.43 10.86,3.43 14.96,0 l 12.79,-10.49 c 4,-3.48 4,-9.4 0,-12.91 z m -64.51,40.91 -23.8,23.72 c 1.93,0 45.51,31.85 45.51,31.85 4.32,3.08 10.81,2.47 14.34,-1.58 l 8.02,-8 c 3.89,-3.51 3.73,-9.02 -0.67,-12.19 0,0 -28.6,-21.33 -43.4,-33.8 z m -35.39,52.62 c -4.47,-2.93 -10.34,-2.19 -13.15,1.69 -2.65,3.79 -7.09,17.03 -2.53,19.84 l 38.72,23.62 c 4.56,2.69 10.5,1.73 13.25,-1.97 2.6,-3.81 7.25,-15.24 2.82,-18.11 z m 3.08,84.92 c 4.63,2.57 10.34,0.7 12.43,-4.14 0,0 -0.12,-0.38 1.26,-4.12 1.47,-3.69 -1.08,-8.98 -5.68,-11.63 0,0 -39.63,-22.17 -46.88,-26.75 l -5.52,11.07 c -2.33,4.76 -0.48,10.88 4.08,13.53 z m 4.41,41.35 0.22,-7.89 c 0,-5.33 -3.81,-11.77 -8.51,-14.24 l -38.18,-19.85 c -4.82,-2.51 -8.67,-1.88 -8.67,1.33 0,3.27 3.85,13.94 8.67,16.57 0,0 29.2,15.95 46.47,24.08 z m 3.12,26.53 c 4.9,2.13 7.45,1.37 5.72,-1.78 -1.93,-3.14 -9.24,-11.57 -14.08,-14.03 0,0 -43.94,-21.71 -45.89,-21.71 l 5.14,9.28 c 2.57,4.62 8.8,10.25 13.6,12.3 l 35.51,15.94" />
       </g>
</svg>
